<svg width="32" height="32" viewBox="0 0 24 25" fill="none" xmlns="http://www.w3.org/2000/svg">
<path d="M21.9553 8.94587C21.9067 8.89319 21.8337 8.86888 21.7648 8.88914C21.5055 8.95803 21.1043 9.0107 20.5735 9.06338C20.0387 9.11606 19.366 9.14847 18.3611 9.06338C17.3562 8.97829 16.6957 8.83647 16.1811 8.69464C15.6665 8.55282 15.2775 8.43531 15.0344 8.32186C14.9696 8.29349 14.8926 8.3016 14.8358 8.35022C14.7791 8.39479 14.7588 8.47178 14.7751 8.54067C14.8156 8.6987 14.852 8.90535 14.8845 9.16873C15.0506 9.13227 15.2127 9.08769 15.3748 9.03502C15.4436 9.0107 15.5166 9.02691 15.5693 9.07554C15.6179 9.12821 15.6341 9.20115 15.6138 9.27003C15.5247 9.52126 15.4396 9.91836 15.3383 10.4451C15.241 10.9719 15.1559 11.6405 15.1559 12.6494C15.1559 13.6584 15.241 14.327 15.3383 14.8537C15.3748 15.0442 15.4072 15.2184 15.4396 15.3724C15.4963 15.3643 15.5571 15.3603 15.6179 15.3522C16.1527 15.2995 16.8254 15.2671 17.8303 15.3522C18.8352 15.4372 19.4957 15.5791 20.0103 15.7209C20.5249 15.8627 20.9139 15.9802 21.157 16.0937C21.2219 16.122 21.2988 16.1139 21.3556 16.0653C21.4123 16.0207 21.4326 15.9437 21.4164 15.8749C21.3475 15.6155 21.2988 15.2144 21.2421 14.6836C21.1894 14.1487 21.157 13.4761 21.2421 12.4711C21.3272 11.4662 21.469 10.8058 21.6109 10.2911C21.7527 9.77654 21.8702 9.38754 21.9836 9.14442C22.012 9.07959 22.0039 9.0026 21.9553 8.94587ZM19.0094 12.0659C19.1229 12.1065 19.2728 12.1429 19.3701 12.151C19.5322 12.1632 19.6051 12.1227 19.6091 12.0335C19.6172 11.9403 19.52 11.8836 19.4025 11.8188C19.2364 11.7256 19.0297 11.6121 19.054 11.3366C19.0743 11.1137 19.2404 10.9395 19.5767 10.9678C19.6902 10.9759 19.8036 11.0043 19.909 11.0448C19.9455 11.061 19.9698 11.1056 19.9657 11.1461L19.9495 11.3285C19.8442 11.2839 19.7307 11.2555 19.6172 11.2434C19.4511 11.2312 19.4106 11.2758 19.4065 11.3447C19.3984 11.4176 19.4876 11.4662 19.5929 11.523C19.7631 11.6162 19.99 11.7377 19.9617 12.0416C19.9374 12.3091 19.7104 12.4549 19.4025 12.4266C19.2769 12.4185 19.1553 12.3901 19.0378 12.3455C19.0013 12.3253 18.9811 12.2848 18.9851 12.2442L19.0013 12.0619L19.0094 12.0659ZM18.5597 10.3519L18.8312 10.3762C18.896 10.3803 18.9162 10.4168 18.9122 10.4775L18.8919 10.7166L18.6204 10.6923C18.5556 10.6882 18.5354 10.6518 18.5394 10.591L18.5597 10.3519ZM18.5151 10.8949L18.7866 10.9192C18.8514 10.9233 18.8717 10.9597 18.8676 11.0205L18.7542 12.3577L18.4827 12.3334C18.4178 12.3293 18.3976 12.2929 18.4016 12.2321L18.5151 10.8949ZM17.109 10.2304L17.3805 10.2547C17.4454 10.2587 17.4656 10.2952 17.4616 10.356L17.4129 10.9233C17.5183 10.8341 17.652 10.7896 17.7898 10.7977C18.1869 10.8301 18.2841 11.1542 18.2477 11.5473C18.2071 12.0214 17.9843 12.3091 17.4575 12.2645C17.3116 12.2523 17.1698 12.2199 17.032 12.1713C16.9672 12.147 16.9429 12.1267 16.951 12.0659L17.105 10.2304H17.109ZM16.4688 10.1777L16.7403 10.202C16.8051 10.2061 16.8254 10.2425 16.8213 10.3033L16.8011 10.5424L16.5296 10.5181C16.4648 10.514 16.4445 10.4775 16.4486 10.4168L16.4688 10.1777ZM16.3351 13.0425C16.2459 13.3707 16.0717 13.5611 15.7232 13.5328C15.6543 13.5287 15.5855 13.5125 15.5166 13.4923C15.4761 13.4801 15.468 13.4761 15.4801 13.4315L15.8286 12.1591L15.9056 12.1672C15.938 12.1672 15.9461 12.1835 15.938 12.2159L15.8286 12.6211C15.9218 12.5603 16.0231 12.5279 16.1122 12.536C16.3594 12.5562 16.4202 12.7386 16.3351 13.0465V13.0425ZM16.3108 12.0578L16.4242 10.7207L16.6957 10.745C16.7606 10.749 16.7808 10.7855 16.7768 10.8463L16.6633 12.1835L16.3918 12.1591C16.327 12.1551 16.3067 12.1186 16.3108 12.0578ZM17.0564 13.6341L16.9834 13.626C16.951 13.626 16.9429 13.6098 16.951 13.5774L16.9632 13.5409C16.8659 13.5976 16.7646 13.6341 16.6674 13.626C16.562 13.6179 16.4891 13.5774 16.4526 13.4963C16.4202 13.4315 16.4283 13.3504 16.4567 13.2491L16.6349 12.6008L16.716 12.6089C16.7484 12.6089 16.7565 12.6251 16.7484 12.6535L16.5823 13.2572C16.5377 13.4274 16.5904 13.5125 16.7241 13.5247C16.8132 13.5328 16.9024 13.4923 16.9915 13.4396L17.2063 12.6494L17.2833 12.6575C17.3157 12.6575 17.3238 12.6738 17.3157 12.7062L17.0604 13.6341H17.0564ZM17.8789 13.703C17.8465 13.703 17.8384 13.6868 17.8465 13.6543L17.8587 13.6179C17.7655 13.6787 17.6642 13.7111 17.575 13.703C17.3278 13.6827 17.2671 13.5004 17.3522 13.1924C17.4413 12.8642 17.6155 12.6738 17.964 12.7021C18.0126 12.7021 18.0572 12.7143 18.1018 12.7264L18.2031 12.3577L18.2801 12.3658C18.3125 12.3658 18.3206 12.382 18.3125 12.4144L17.9559 13.7111L17.8789 13.703ZM18.8676 13.7475C18.7906 14.0271 18.6407 14.1446 18.3854 14.1203C18.3165 14.1203 18.2517 14.1001 18.1869 14.0758C18.1626 14.0636 18.1504 14.0514 18.1585 14.0231L18.1747 13.9623C18.2436 13.9947 18.3206 14.0109 18.3976 14.019C18.5961 14.0352 18.6853 13.9582 18.7461 13.7354L18.7663 13.6665C18.6731 13.7273 18.5718 13.7597 18.4786 13.7516C18.2314 13.7313 18.1707 13.553 18.2517 13.2491C18.3368 12.9371 18.511 12.7467 18.8595 12.7751C18.9284 12.7791 18.9973 12.7953 19.0662 12.8156C19.1026 12.8277 19.1148 12.8358 19.1026 12.8764L18.8636 13.7475H18.8676ZM19.9049 13.3261C19.8887 13.3788 19.8644 13.395 19.8117 13.391L19.2809 13.3464C19.212 13.6179 19.2728 13.7313 19.4835 13.7475C19.5686 13.7556 19.6578 13.7475 19.7429 13.7313L19.7267 13.7921C19.7185 13.8164 19.6983 13.8367 19.6699 13.8367C19.5929 13.8529 19.5119 13.8529 19.4349 13.8448C19.1634 13.8205 19.0581 13.6624 19.1553 13.3099C19.2445 12.9777 19.4349 12.8075 19.678 12.8277C19.9171 12.848 19.986 13.0384 19.909 13.3221L19.9049 13.3261ZM20.5371 13.0384L20.2696 13.0141L20.1075 13.6098C20.0711 13.7354 20.0994 13.7962 20.2007 13.8043C20.2453 13.8043 20.2899 13.8043 20.3345 13.7962L20.3183 13.8529C20.3142 13.8813 20.2899 13.9015 20.2615 13.9015C20.221 13.9056 20.1845 13.9056 20.144 13.9015C19.9738 13.8853 19.9333 13.7921 19.986 13.5976L20.2413 12.6656L20.3183 12.6738C20.3507 12.6738 20.3588 12.69 20.3507 12.7224L20.298 12.9088L20.5209 12.929C20.5533 12.929 20.5614 12.9452 20.5533 12.9777L20.5371 13.0384ZM17.4818 13.1884C17.4008 13.4801 17.4697 13.5895 17.6196 13.6017C17.7168 13.6098 17.7938 13.5733 17.8789 13.5166L18.0653 12.8318C18.0207 12.8156 17.9721 12.8034 17.9194 12.7994C17.6966 12.7791 17.5588 12.8885 17.4778 13.1884H17.4818ZM17.8627 11.5756C17.8911 11.2555 17.8222 11.0975 17.6642 11.0854C17.5629 11.0772 17.4778 11.1218 17.3846 11.1988L17.3197 11.9565C17.3765 11.9809 17.4332 11.9971 17.494 12.0011C17.7249 12.0214 17.8343 11.8836 17.8587 11.5756H17.8627ZM18.3854 13.2451C18.3084 13.5287 18.3773 13.6381 18.5272 13.6503C18.6245 13.6584 18.7015 13.6219 18.7866 13.5652L18.9689 12.9047C18.9243 12.8885 18.8757 12.8764 18.823 12.8723C18.6002 12.852 18.4624 12.9614 18.3854 13.2451ZM16.0555 12.6292C15.9583 12.6211 15.8813 12.6575 15.7962 12.7143L15.6098 13.3991C15.6543 13.4153 15.703 13.4274 15.7556 13.4315C15.9785 13.4517 16.1163 13.3423 16.1973 13.0425C16.2784 12.7507 16.2095 12.6413 16.0596 12.6292H16.0555ZM19.6456 12.9209C19.4997 12.9088 19.3863 13.002 19.3052 13.2451L19.7874 13.2856C19.8482 13.0709 19.8036 12.9331 19.6497 12.9209H19.6456Z" fill="#0065A6"/>
<path d="M8.62414 9.03492C8.78217 9.08759 8.9483 9.13217 9.11039 9.16863C9.1428 8.90525 9.17927 8.69455 9.21979 8.54057C9.236 8.47168 9.21574 8.39875 9.15901 8.35012C9.10228 8.30555 9.02934 8.29339 8.96451 8.32581C8.72139 8.43521 8.33239 8.55678 7.81778 8.6986C7.29912 8.84042 6.64269 8.98224 5.63778 9.06733C4.63288 9.15243 3.96024 9.12406 3.42537 9.06733C2.89455 9.01466 2.48935 8.96198 2.23407 8.8931C2.16518 8.87284 2.09225 8.89715 2.04362 8.95388C1.99905 9.0106 1.98689 9.08759 2.01526 9.15243C2.12466 9.39555 2.24622 9.78455 2.38805 10.2992C2.52987 10.8138 2.67169 11.4742 2.75678 12.4792C2.84188 13.4841 2.81351 14.1567 2.75678 14.6916C2.70411 15.2224 2.64738 15.6276 2.58254 15.8869C2.56634 15.9558 2.5866 16.0287 2.63927 16.0774C2.696 16.1219 2.76894 16.1341 2.83782 16.1057C3.08095 15.9963 3.46994 15.8748 3.98455 15.7329C4.50321 15.5911 5.15964 15.4493 6.16455 15.3642C7.16946 15.2791 7.8421 15.3075 8.37697 15.3642C8.43775 15.3723 8.49853 15.3764 8.55526 15.3845C8.58767 15.2305 8.62414 15.0563 8.65656 14.8658C8.75381 14.339 8.8389 13.6705 8.8389 12.6615C8.8389 11.6525 8.75381 10.9839 8.65656 10.4572C8.55931 9.93042 8.47016 9.53332 8.38102 9.28209C8.35671 9.21321 8.37291 9.14027 8.42559 9.08759C8.47827 9.03492 8.5512 9.01871 8.62009 9.04302L8.62414 9.03492ZM4.37355 11.0853L4.487 12.4224L4.21552 12.4467C4.15068 12.4508 4.12637 12.4224 4.11827 12.3616L4.00481 11.0245L4.2763 11.0002C4.34113 10.9961 4.36544 11.0245 4.37355 11.0853ZM4.23173 10.4572C4.29656 10.4531 4.32087 10.4815 4.32897 10.5423L4.34924 10.7813L4.07775 10.8057C4.01292 10.8097 3.9886 10.7813 3.9805 10.7206L3.96024 10.4815L4.23173 10.4572ZM3.88325 13.9541C3.79816 13.9622 3.70901 13.9581 3.62392 13.9419C3.5915 13.9379 3.57529 13.9217 3.57124 13.8893V13.8244C3.66039 13.8447 3.75764 13.8487 3.85083 13.8447C4.02102 13.8325 4.09396 13.7596 4.08585 13.6299C4.0737 13.5043 3.95619 13.4679 3.82652 13.4273C3.6766 13.3828 3.51451 13.3301 3.49831 13.1356C3.48615 12.9776 3.5834 12.8479 3.81437 12.8276C3.89541 12.8195 3.97645 12.8236 4.05344 12.8398C4.08585 12.8438 4.10206 12.86 4.10611 12.8925V12.9573C4.02507 12.937 3.93593 12.9289 3.84678 12.937C3.6766 12.9532 3.62797 13.0181 3.63608 13.1153C3.64418 13.2328 3.76169 13.2693 3.89135 13.3098C4.04533 13.3544 4.21147 13.4071 4.22767 13.6097C4.24388 13.788 4.13448 13.9379 3.8873 13.9581L3.88325 13.9541ZM4.9773 12.856L4.70581 12.8803L4.78686 13.865L4.70176 13.8731C4.66529 13.8731 4.64909 13.865 4.64909 13.8285L4.5721 12.8925L4.25199 12.9208V12.86C4.24388 12.8236 4.25199 12.8074 4.28845 12.8074L5.01782 12.7466V12.8074C5.02593 12.8438 5.01377 12.86 4.9773 12.86V12.856ZM4.85169 12.3535C4.7828 12.3373 4.75849 12.3252 4.75444 12.2644L4.60046 10.4288L4.87195 10.4045C4.93678 10.4005 4.96109 10.4288 4.9692 10.4896L5.01782 11.0569C5.10697 10.9515 5.23258 10.8867 5.37035 10.8705C5.76745 10.8381 5.91738 11.142 5.94979 11.535C5.99031 12.0091 5.81607 12.3292 5.28931 12.3738C5.14344 12.386 4.99756 12.3779 4.85574 12.3535H4.85169ZM5.63373 13.8082C5.53648 13.8163 5.43923 13.8123 5.3744 13.7961C5.34199 13.788 5.32578 13.7758 5.32173 13.7434V13.6745C5.41087 13.6948 5.50407 13.7029 5.60132 13.6948C5.79987 13.6786 5.8728 13.6218 5.86065 13.4476L5.85254 13.3463C5.7634 13.3706 5.67425 13.3909 5.58106 13.399C5.28526 13.4233 5.20827 13.3179 5.18801 13.0951L5.15559 12.7263L5.24068 12.7182C5.27715 12.7182 5.29336 12.7263 5.29336 12.7628L5.32173 13.0829C5.33793 13.2653 5.41492 13.2977 5.60132 13.2815C5.68236 13.2734 5.75935 13.2571 5.83633 13.2328L5.78771 12.6737L5.87686 12.6655C5.91332 12.6655 5.92953 12.6737 5.92953 12.7101L5.99031 13.4152C6.01057 13.6461 5.91738 13.7799 5.62968 13.8042L5.63373 13.8082ZM6.04704 10.3073L6.31853 10.2829C6.38336 10.2789 6.40767 10.3073 6.41578 10.368L6.43604 10.6071L6.16455 10.6314C6.09972 10.6355 6.07541 10.6071 6.0673 10.5463L6.04704 10.3073ZM6.3631 10.8259C6.42793 10.8219 6.45225 10.8502 6.46035 10.911L6.57381 12.2482L6.30232 12.2725C6.23749 12.2766 6.21317 12.2482 6.20507 12.1874L6.09161 10.8502L6.3631 10.8259ZM6.79667 13.6826C6.71563 13.711 6.63459 13.7272 6.54949 13.7312C6.27396 13.7555 6.21723 13.6461 6.19697 13.4233L6.13213 12.6453L6.22128 12.6372C6.25775 12.6372 6.2699 12.6453 6.27396 12.6818L6.33474 13.4111C6.35094 13.5935 6.40362 13.6259 6.57381 13.6137C6.66295 13.6056 6.7521 13.5854 6.83719 13.5529V13.6218C6.84529 13.6583 6.83314 13.6705 6.80072 13.6826H6.79667ZM7.39232 13.5489C7.48552 13.5408 7.57871 13.5165 7.66381 13.4841V13.5529C7.67191 13.5813 7.6557 13.6056 7.62734 13.6137C7.5463 13.6421 7.4612 13.6624 7.37611 13.6664C7.07626 13.6907 6.89797 13.5367 6.86555 13.1437C6.83314 12.7668 6.97091 12.5521 7.24239 12.5318C7.50578 12.5116 7.6557 12.702 7.68407 13.0221C7.68812 13.0829 7.66786 13.1072 7.60708 13.1113L7.01953 13.1599C7.0479 13.4638 7.16135 13.5732 7.39232 13.557V13.5489ZM7.23024 12.2158C7.10462 12.2279 6.97901 12.2239 6.85745 12.1955C6.81693 12.1834 6.79262 12.1469 6.78856 12.1064L6.77236 11.924C6.88987 11.9443 7.04384 11.9564 7.14109 11.9483C7.30317 11.9362 7.36801 11.8795 7.3599 11.7903C7.3518 11.6971 7.24645 11.6566 7.12083 11.6161C6.93849 11.5512 6.71968 11.4742 6.69942 11.1987C6.67916 10.9758 6.81693 10.7773 7.15325 10.7489C7.26671 10.7368 7.38421 10.7489 7.49362 10.7692C7.53414 10.7813 7.5625 10.8178 7.56656 10.8583L7.58277 11.0407C7.46931 11.0164 7.35585 11.0083 7.24239 11.0123C7.07626 11.0245 7.04384 11.0812 7.05195 11.146C7.06005 11.219 7.15325 11.2514 7.26671 11.2919C7.4531 11.3567 7.69217 11.4378 7.71648 11.7417C7.74079 12.0091 7.53414 12.1915 7.23024 12.2158ZM8.40938 12.5359V12.6007C8.32834 12.5805 8.2392 12.5724 8.15005 12.5805C7.97987 12.5967 7.93124 12.6615 7.93934 12.7587C7.94745 12.8763 8.06496 12.9127 8.19462 12.9532C8.3486 12.9978 8.51474 13.0505 8.53094 13.2531C8.54715 13.4314 8.43775 13.5813 8.19057 13.6016C8.10548 13.6097 8.01633 13.6056 7.93124 13.5894C7.89882 13.5854 7.88262 13.5692 7.87856 13.5367V13.4719C7.96771 13.4922 8.06496 13.4962 8.15815 13.4922C8.32834 13.48 8.40128 13.4071 8.39317 13.2774C8.38102 13.1518 8.26351 13.1153 8.13384 13.0748C7.98392 13.0302 7.82184 12.9776 7.80563 12.7831C7.79347 12.625 7.89072 12.4954 8.12169 12.4751C8.20273 12.467 8.28377 12.471 8.36076 12.4873C8.39317 12.4913 8.40938 12.5075 8.41343 12.5399L8.40938 12.5359ZM7.2505 12.6372C7.08842 12.6493 6.99927 12.7709 7.00738 13.0505L7.54224 13.0059C7.52198 12.7628 7.42068 12.625 7.2505 12.6372ZM5.56485 11.6323C5.53648 11.3122 5.44329 11.1663 5.28931 11.1825C5.18801 11.1906 5.11102 11.2514 5.03403 11.3405L5.09886 12.0983C5.15559 12.1145 5.21637 12.1185 5.27715 12.1145C5.50812 12.0942 5.59321 11.9443 5.56485 11.6323Z" fill="#6AB023"/>
<path d="M15.4438 15.3683C15.4114 15.2144 15.375 15.0401 15.3425 14.8497C15.2453 14.3229 15.1602 13.6543 15.1602 12.6454C15.1602 11.6364 15.2453 10.9678 15.3425 10.4411C15.4398 9.91429 15.5289 9.51719 15.6181 9.26596C15.6424 9.19708 15.6262 9.12414 15.5735 9.07147C15.5208 9.02284 15.4479 9.00663 15.379 9.03095C15.2169 9.08362 15.0549 9.12819 14.8887 9.16466C14.6942 9.20923 14.4633 9.25381 14.2039 9.30243C13.6772 9.39968 13.0086 9.48477 11.9996 9.48477C10.9907 9.48477 10.3221 9.39968 9.7953 9.30243C9.53192 9.25381 9.30501 9.20923 9.11051 9.16466C8.94438 9.12819 8.78229 9.08362 8.62426 9.03095C8.55538 9.00663 8.48244 9.02284 8.42977 9.07552C8.37709 9.12819 8.36088 9.20113 8.38519 9.27002C8.47434 9.52124 8.55943 9.91834 8.66073 10.4451C8.75798 10.9719 8.84307 11.6405 8.84307 12.6494C8.84307 13.6584 8.75798 14.327 8.66073 14.8537C8.62426 15.0442 8.59185 15.2144 8.55943 15.3724C8.49865 15.6479 8.44597 15.8708 8.38519 16.0288C8.36088 16.0977 8.37709 16.1706 8.42571 16.2233C8.47839 16.2719 8.55133 16.2882 8.62021 16.2679C8.87144 16.1787 9.26854 16.0896 9.7953 15.9924C10.3221 15.8951 10.9907 15.81 11.9996 15.81C13.0086 15.81 13.6772 15.8951 14.2039 15.9924C14.7307 16.0896 15.1237 16.1787 15.375 16.2679C15.4438 16.2922 15.5168 16.276 15.5695 16.2233C15.6221 16.1706 15.6383 16.0977 15.614 16.0288C15.5573 15.8708 15.5006 15.6479 15.4438 15.3764V15.3683ZM10.1721 13.6867H9.81962C9.73858 13.6867 9.70616 13.6422 9.70616 13.5652V11.8269H10.0587C10.1397 11.8269 10.1721 11.8714 10.1721 11.9484V13.6867ZM10.1721 11.5554H9.81962C9.73858 11.5554 9.70616 11.5108 9.70616 11.4338V11.1218H10.0587C10.1397 11.1218 10.1721 11.1664 10.1721 11.2434V11.5554ZM11.2135 13.7151C11.0271 13.7151 10.8083 13.6867 10.6543 13.6381C10.5692 13.6138 10.5368 13.5935 10.5368 13.5085V11.1218H10.8894C10.9704 11.1218 11.0028 11.1664 11.0028 11.2434V11.9808C11.1325 11.8552 11.3027 11.7782 11.4769 11.7782C11.9956 11.7782 12.1536 12.1875 12.1536 12.698C12.1536 13.314 11.8943 13.7111 11.2095 13.7111L11.2135 13.7151ZM12.8951 13.6908H12.5426C12.4615 13.6908 12.4291 13.6462 12.4291 13.5692V11.8309H12.7817C12.8627 11.8309 12.8951 11.8755 12.8951 11.9525V13.6908ZM12.8951 11.5594H12.5426C12.4615 11.5594 12.4291 11.5148 12.4291 11.4379V11.1259H12.7817C12.8627 11.1259 12.8951 11.1704 12.8951 11.2474V11.5594ZM13.7501 13.7192C13.5678 13.7192 13.4016 13.6948 13.272 13.6543C13.2233 13.6341 13.1909 13.5854 13.195 13.5287V13.2937C13.3449 13.3342 13.5434 13.3666 13.6691 13.3666C13.8838 13.3666 13.9689 13.3058 13.9689 13.1843C13.9689 13.0627 13.8352 13.0019 13.6772 12.929C13.4502 12.8277 13.1747 12.7021 13.1747 12.3415C13.1747 12.0497 13.3733 11.8066 13.8109 11.8066C13.9608 11.8066 14.1067 11.8269 14.2525 11.8714C14.3052 11.8876 14.3336 11.9403 14.3336 11.997V12.2321C14.1918 12.1875 14.0459 12.1632 13.896 12.1591C13.6812 12.1591 13.6326 12.224 13.6326 12.3131C13.6326 12.4103 13.7501 12.459 13.896 12.5238C14.1269 12.6251 14.4308 12.7588 14.4308 13.1519C14.4308 13.5003 14.1472 13.7111 13.7501 13.7111V13.7192ZM11.3513 12.1672C11.2176 12.1672 11.1122 12.2361 11.0028 12.3455V13.3342C11.0757 13.3585 11.1527 13.3747 11.2338 13.3747C11.5336 13.3747 11.6592 13.1883 11.6592 12.7831C11.6592 12.3779 11.5539 12.1713 11.3513 12.1713V12.1672Z" fill="#E20026"/>
</svg>
